# xmcd
#
# Track frame offsets: 
#        150
#        18945
#        33628
#        52969
#        74346
#        97207
#        122998
#        148007
#        166833
#        185257
#        215301
#        235227
#        248842
#        263577
#        276177
#        294051
#
# Disc length: 4204 seconds
#
# Revision: 1
# Processed by: cddbd v1.5.2PL0 Copyright (c) Steve Scherf et al.
# Submitted via: ExactAudioCopyFreeDBPlugin 1.0
#
DISCID=e5106a10
DTITLE=Noa - Noa - live in Israel
DYEAR=2006
DGENRE=Jazz
TTITLE0=For father
TTITLE1=Mishaea
TTITLE2=Wildflower
TTITLE3=I don´t know
TTITLE4=Now forget
TTITLE5=Eye in the sky
TTITLE6=Motor lullabies
TTITLE7=Barren (Uri)
TTITLE8=Yuma
TTITLE9=Child of man
TTITLE10=Ray of light
TTITLE11=Santa lucia
TTITLE12=Torna surriento
TTITLE13=Beautiful that way
TTITLE14=Shalom shalom
TTITLE15=Ave Maria
EXTD=YEAR: 2006
EXTT0=
EXTT1=
EXTT2=
EXTT3=
EXTT4=
EXTT5=
EXTT6=
EXTT7=
EXTT8=
EXTT9=
EXTT10=
EXTT11=
EXTT12=
EXTT13=
EXTT14=
EXTT15=
PLAYORDER=
